<?xml version="1.0" encoding="UTF-8" standalone="no"?>
<!-- Created with Inkscape (http://www.inkscape.org/) -->

<svg
   xmlns:dc="http://purl.org/dc/elements/1.1/"
   xmlns:cc="http://creativecommons.org/ns#"
   xmlns:rdf="http://www.w3.org/1999/02/22-rdf-syntax-ns#"
   xmlns:svg="http://www.w3.org/2000/svg"
   xmlns="http://www.w3.org/2000/svg"
   xmlns:sodipodi="http://sodipodi.sourceforge.net/DTD/sodipodi-0.dtd"
   xmlns:inkscape="http://www.inkscape.org/namespaces/inkscape"
   width="64.2229mm"
   height="11.262085mm"
   viewBox="0 0 64.2229 11.262085"
   version="1.1"
   id="svg8"
   inkscape:version="0.92.4 (5da689c313, 2019-01-14)"
   sodipodi:docname="logo_2.svg">
  <defs
     id="defs2" />
  <sodipodi:namedview
     id="base"
     pagecolor="#ffffff"
     bordercolor="#666666"
     borderopacity="1.0"
     inkscape:pageopacity="0.0"
     inkscape:pageshadow="2"
     inkscape:zoom="3.959798"
     inkscape:cx="126.08711"
     inkscape:cy="-13.138223"
     inkscape:document-units="mm"
     inkscape:current-layer="layer1-7"
     showgrid="false"
     showguides="true"
     inkscape:guide-bbox="true"
     inkscape:window-width="1920"
     inkscape:window-height="1051"
     inkscape:window-x="-9"
     inkscape:window-y="-9"
     inkscape:window-maximized="1" />
  <metadata
     id="metadata5">
    <rdf:RDF>
      <cc:Work
         rdf:about="">
        <dc:format>image/svg+xml</dc:format>
        <dc:type
           rdf:resource="http://purl.org/dc/dcmitype/StillImage" />
        <dc:title></dc:title>
      </cc:Work>
    </rdf:RDF>
  </metadata>
  <g
     inkscape:label="Layer 1"
     inkscape:groupmode="layer"
     id="layer1"
     transform="translate(-68.412119,-98.938803)">
    <g
       transform="matrix(1,0,0,0.98251269,-783.74287,490.00465)"
       id="layer1-7"
       inkscape:label="Layer 1"
       style="stroke-width:1.00885999">
      <rect
         y="-398.01291"
         x="852.16833"
         height="11.435842"
         width="64.196205"
         id="rect1093"
         style="opacity:0.7;fill:#000000;fill-opacity:1;stroke:#666666;stroke-width:0.02669275;stroke-miterlimit:4;stroke-dasharray:none;stroke-opacity:1" />
      <path
         inkscape:connector-curvature="0"
         id="rect1101"
         d="m 884.83413,-397.72094 c -1.31677,-0.005 -2.38548,0.43393 -3.2062,1.31503 -0.82077,0.87684 -1.22109,2.09451 -1.20024,3.65303 0.011,0.82409 0.20014,1.60579 0.56681,2.34567 0.36668,0.73988 0.89926,1.32452 1.59734,1.7538 0.10575,0.065 0.21417,0.12347 0.32408,0.17872 0.16274,0.13674 0.33627,0.26396 0.52262,0.37856 0.69808,0.42932 1.48664,0.64534 2.3659,0.64823 0.8113,0.003 1.5645,-0.18683 2.26022,-0.5688 0.69567,-0.38624 1.22958,-0.95489 1.60182,-1.70513 0.37224,-0.75023 0.55201,-1.60102 0.53927,-2.55321 -0.0125,-0.93938 -0.20637,-1.77935 -0.58154,-2.51925 -0.37099,-0.74416 -0.90519,-1.32452 -1.6031,-1.741 -0.0948,-0.0566 -0.19166,-0.10864 -0.28949,-0.15758 -0.17295,-0.14602 -0.35749,-0.27987 -0.55721,-0.39906 -0.6979,-0.41644 -1.47801,-0.62612 -2.34028,-0.62901 z m -32.02995,0.63222 v 10.2487 h 8.19803 v -10.2487 z m 38.63064,0.10056 0.0724,5.42477 c 0.0133,0.99489 0.14319,1.78126 0.38877,2.35848 0.24552,0.57296 0.64807,1.01195 1.20857,1.31696 0.5605,0.30503 1.27824,0.45894 2.15326,0.46183 0.9005,0.003 1.62491,-0.16776 2.17248,-0.51179 0.55175,-0.34829 0.92995,-0.79973 1.13491,-1.35411 0.20496,-0.55438 0.30083,-1.30338 0.28821,-2.24703 l -0.0724,-5.42477 -1.23611,-0.004 0.0724,5.41836 c 0.0158,1.17849 -0.1666,1.97441 -0.5476,2.38731 -0.38099,0.41293 -1.02586,0.61733 -1.93486,0.61428 -0.53095,-0.002 -0.98289,-0.1079 -1.35524,-0.31835 -0.36809,-0.21044 -0.631,-0.50748 -0.78906,-0.89228 -0.15386,-0.38906 -0.23631,-0.99142 -0.24722,-1.80697 l -0.0724,-5.419 z m -19.57279,0.0724 0.12553,9.38973 1.23612,0.004 -0.0563,-4.1693 1.43402,0.005 c 0.31857,10e-4 0.54794,0.0171 0.6885,0.0474 0.19178,0.0476 0.38001,0.13157 0.56426,0.25173 0.1885,0.12018 0.40157,0.32999 0.63918,0.62966 0.23762,0.29966 0.54025,0.73163 0.90884,1.29646 l 1.26236,1.9575 1.55443,0.006 -1.65882,-2.5609 c -0.3295,-0.50064 -0.67655,-0.91865 -1.04205,-1.2529 -0.17197,-0.15428 -0.42272,-0.31044 -0.75191,-0.46952 0.8946,-0.12084 1.55359,-0.40928 1.97649,-0.86473 0.42291,-0.45545 0.62953,-1.01596 0.62062,-1.68206 -0.007,-0.51667 -0.14253,-0.98904 -0.40734,-1.41689 -0.26482,-0.42785 -0.61489,-0.7256 -1.05037,-0.89356 -0.43554,-0.17227 -1.06966,-0.25989 -1.9022,-0.26262 z m -9.46168,10e-4 0.12554,9.38973 1.18487,0.004 -0.0986,-7.37842 5.00464,7.39508 1.26813,0.004 -0.12553,-9.38909 -1.18552,-0.005 0.0986,7.37202 -5.00464,-7.38803 z m 53.54337,10e-4 -6.75377,0.0224 -0.0147,1.1075 5.51766,-0.0179 -0.0385,2.87541 -5.16731,0.0173 -0.0147,1.10174 5.16732,-0.0173 -0.0423,3.19631 -5.73477,0.0186 -0.0147,1.10814 6.97025,-0.0231 z m -15.17788,0.24597 0.0141,1.05113 2.91927,0.01 0.10503,7.85563 1.17207,0.004 -0.10504,-7.85563 2.93143,0.01 -0.0141,-1.05113 z m -47.33784,0.0243 6.75377,0.0224 0.0153,1.10751 -5.51829,-0.0179 0.0384,2.87541 5.16732,0.0173 0.0147,1.10174 -5.16668,-0.0173 0.0423,3.19631 5.73478,0.0186 0.0147,1.10814 -6.97089,-0.0231 z m 32.27333,0.5483 c 0.45392,0.002 0.87498,0.0904 1.26429,0.26326 0.28958,0.26986 0.52504,0.59864 0.70387,0.98901 0.2667,0.56875 0.40544,1.23482 0.41567,1.99913 0.0162,1.20839 -0.27347,2.14041 -0.86784,2.79598 -0.59013,0.65554 -1.34985,0.9818 -2.28008,0.97875 -0.46102,-0.002 -0.88411,-0.0857 -1.26941,-0.25238 -0.0602,-0.0552 -0.12045,-0.1108 -0.17805,-0.17166 -0.6119,-0.6553 -0.92508,-1.54852 -0.94021,-2.68004 -0.0189,-1.41334 0.28183,-2.42019 0.90242,-3.02017 0.62479,-0.60421 1.37432,-0.90478 2.24934,-0.90188 z m -12.58974,0.22099 2.95641,0.01 c 0.69237,0.002 1.2,0.14715 1.5224,0.43429 0.32664,0.28716 0.49298,0.65254 0.49893,1.09661 0.004,0.30316 -0.0754,0.58497 -0.23761,0.84488 -0.16223,0.25564 -0.40164,0.44261 -0.71861,0.56112 -0.31703,0.11425 -0.75828,0.17036 -1.32322,0.16845 l -2.65667,-0.009 z"
         style="opacity:0.7;fill:#ffffff;fill-opacity:1;stroke:#666666;stroke-width:0.02669275;stroke-miterlimit:4;stroke-dasharray:none;stroke-opacity:1" />
    </g>
  </g>
</svg>
